<?xml version="1.0" encoding="UTF-8" standalone="no"?>
<!-- Created with Inkscape (http://www.inkscape.org/) -->

<svg
   version="1.1"
   id="svg1"
   width="386.66666"
   height="388"
   viewBox="0 0 386.66666 388"
   xmlns="http://www.w3.org/2000/svg"
   xmlns:svg="http://www.w3.org/2000/svg">
  <defs
     id="defs1">
    <clipPath
       clipPathUnits="userSpaceOnUse"
       id="clipPath2">
      <path
         d="M 0,9.83984 H 2900 V 2909.8398 H 0 Z"
         id="path2" />
    </clipPath>
  </defs>
  <g
     id="g1">
    <path
       id="path1"
       d="m 1564.02,414.719 -7.34,-3.59 h -202.5 l -69.84,125.16 h 195 l 7.34,3.59 868.44,1512.501 66.25,-136.09 z m 92.03,1100.321 7.35,-3.6 25.78,-125.15 -77.34,-150.94 -25.79,139.84 -7.34,3.75 h -482.03 l 80.94,136.1 z M 1453.55,576.75 783.871,1743.32 h 161.867 l 172.972,-305.47 -36.87,-62.66 81.09,-150.78 99.37,-3.75 268.6,-500.469 z m 371.72,1166.57 58.91,106.72 14.69,-106.72 h 70 L 1460.9,871.129 1273.24,1220.66 h 338.6 l 84.68,165.63 -29.53,136.25 h -496.72 l -44.22,-73.75 -169.21,294.53 z m 231.88,158.12 -80.94,-147.19 h -66.25 l -22.19,147.19 z m -162.03,44.22 -22.03,-36.87 7.34,-44.07 -55.16,-103.12 -22.03,158.28 69.85,125.16 z M 566.68,2056.13 H 1865.74 L 1795.9,1927.22 H 485.738 Z M 1247.46,576.75 h 47.97 l -22.19,-33.121 77.35,-139.84 h 213.43 l 868.44,1512.501 c -11.09,25.62 -73.59,150.78 -73.59,150.78 h -393.75 l -62.5,-110.32 -25.78,110.32 c -437.97,0 -879.539,0 -1317.5,0 l -88.289,-139.85 z m 331.25,802.19 7.34,-3.75 77.35,136.25 -7.35,3.6 z m -14.69,-964.221 -7.34,-3.59 -77.34,125.16 7.34,3.59 z M 44.1797,1338.47 c 0,-22.03 18.4414,-40.47 40.4687,-40.47 18.4416,0 36.7226,18.44 36.7226,40.47 0,18.44 -18.281,36.72 -36.7226,36.72 -22.0273,0 -40.4687,-18.28 -40.4687,-36.72 z m 2704.8403,0 c 0,-22.03 18.28,-40.47 40.47,-40.47 18.28,0 36.72,18.44 36.72,40.47 0,18.44 -18.44,36.72 -36.72,36.72 -22.19,0 -40.47,-18.28 -40.47,-36.72 z M 7.30078,1437.85 v 18.44 c 0,3.59 0,10.93 11.09762,10.93 H 154.488 c 11.102,0 11.102,-7.34 11.102,-10.93 v -18.44 h 7.34 v 80.94 h -7.34 v -18.44 c 0,-3.6 -3.75,-10.94 -14.692,-10.94 H 88.2383 v 14.69 c 0,14.69 14.8517,25.78 33.1327,29.37 v 7.35 H 47.7695 v -7.35 c 18.4414,-3.59 29.5313,-14.68 29.5313,-29.37 v -14.69 H 18.3984 c -11.09762,0 -11.09762,0 -11.09762,10.94 v 25.78 c 0,11.09 3.75002,22.03 11.09762,33.12 7.3399,3.75 22.0313,11.1 40.4727,14.69 v 7.35 l -58.9101625,-3.6 v -139.84 z m 7.34762,242.81 c 95.7816,-62.5 143.5896,-92.03 147.1916,-95.62 3.75,-3.75 7.5,-7.35 3.75,-18.44 h 7.34 l 11.09,62.65 -7.34,3.6 c -7.34,-33.13 -3.75,-40.47 -47.809,-7.35 l 10.93,66.25 33.129,7.35 c 3.75,0 14.691,-3.75 11.09,-22.03 l 7.351,-3.75 11.09,70 h -7.5 c 0,-11.1 -3.59,-14.85 -14.691,-18.44 L 14.6484,1691.75 c -7.34762,-3.75 -7.34762,-7.34 0,-11.09 z m 114.2226,7.34 -11.101,-58.75 -73.5903,40.47 z m -47.9726,224.54 c -14.6875,-18.44 -22.0273,-25.79 -25.7773,-40.47 -14.6914,-44.22 14.8398,-88.28 69.9999,-102.97 47.809,-14.85 88.277,14.69 102.969,55.15 11.09,33.13 -7.352,62.5 -40.469,80.94 -3.601,0 -7.351,-3.75 -3.601,-7.34 29.378,-18.44 47.82,-40.47 36.718,-73.6 -3.59,-29.53 -40.468,-40.46 -88.277,-25.78 -58.9102,14.69 -77.3399,44.22 -66.2501,69.85 3.75,11.09 11.0899,22.18 22.0274,29.53 11.1015,3.59 29.5317,7.34 47.9727,7.34 l 3.59,3.6 -69.8401,22.18 v -7.34 z m 14.8399,55.15 c 14.6917,29.53 0,36.88 73.6017,-3.59 36.711,-18.44 58.75,-25.78 69.84,-25.78 18.441,0 77.34,33.12 58.91,95.62 -3.75,11.1 -14.692,22.19 -33.129,29.53 l -77.34,36.72 c -14.691,11.1 -18.281,18.44 -7.351,36.88 l -10.93,7.34 -29.539,-62.66 11.097,-7.34 c 10.942,25.78 10.942,25.78 36.723,11.09 117.809,-47.81 106.719,-66.25 92.027,-95.62 -10.937,-25.78 -18.437,-29.53 -36.718,-29.53 -7.34,0 -29.532,7.34 -66.25,25.78 -33.129,18.44 -51.559,25.78 -55.309,29.37 0,3.75 3.75,11.1 11.09,25.79 l -7.34,7.34 -36.8827,-77.19 z m 91.8827,191.41 c 14.84,25.78 3.75,29.37 81.09,-18.44 84.527,-47.81 69.84,-40.47 55.16,-66.25 l 3.59,-3.59 77.34,121.4 -55.153,40.47 -3.75,-7.34 c 33.122,-29.38 40.473,-47.81 25.782,-73.6 -25.782,-40.46 -7.34,-40.46 -92.032,7.35 -77.187,47.81 -66.25,40.47 -47.808,70 l -7.352,3.59 -44.218,-69.84 z m 132.5,102.97 3.75,7.5 c -40.473,73.59 -7.351,80.93 0,73.59 69.84,-58.91 106.719,-92.03 106.719,-95.78 3.59,-3.59 0,-7.34 -11.102,-18.28 l 7.352,-7.5 47.808,58.9 -7.347,7.35 c -7.34,-10.94 -14.68,-18.28 -18.281,-18.28 -3.75,3.59 -36.872,33.12 -106.719,91.87 -14.84,14.85 0,51.56 69.847,7.35 l 3.75,11.09 -51.558,40.47 -88.289,-110.31 z m 110.469,231.87 c 47.808,-102.97 69.84,-158.12 66.25,-165.62 0,-3.6 -3.75,-10.94 -7.352,-14.69 l 7.352,-3.59 44.058,44.06 -3.597,7.34 c -25.781,-33.12 -33.121,-7.34 -36.871,3.75 l -7.34,18.44 47.808,47.81 c 58.903,-29.53 44.223,-22.03 25.782,-40.47 l 7.34,-3.75 51.57,47.82 -7.352,3.75 c -7.34,-7.35 -14.687,-11.1 -22.027,-7.35 l -154.691,69.85 c -7.34,3.75 -14.68,3.75 -10.93,-7.35 z m 99.371,-58.9 -44.223,-44.07 -33.117,77.19 z m 88.277,195.15 c -18.437,0 -103.117,-18.44 -55.148,-88.44 14.68,-18.28 36.711,-18.28 69.84,-7.34 51.558,18.44 51.558,18.44 66.25,3.75 14.691,-14.69 7.34,-36.87 -11.09,-51.56 -25.629,-14.69 -55.16,-14.69 -84.539,14.69 l -7.34,-7.35 36.719,-55.15 11.09,7.34 3.601,22.03 c 55.309,-18.28 81.09,58.91 62.649,84.69 -22.18,29.53 -36.872,25.78 -84.68,7.34 -25.789,-7.34 -73.602,-14.69 -62.5,25.78 7.34,33.13 47.808,44.22 91.871,11.1 l 7.5,3.59 -40.621,47.81 -3.602,-3.59 z M 827.93,2608 c 0,-18.28 -3.59,-29.37 -14.692,-33.12 v -7.34 l 55.16,25.78 -3.597,7.34 c -14.68,-10.94 -25.781,-22.03 -25.781,36.88 l 58.91,29.37 c 44.218,-33.12 44.218,-33.12 18.441,-44.06 v -7.5 l 62.5,29.53 -3.75,3.59 c -10.941,-3.59 -18.281,-3.59 -25.633,3.75 L 827.93,2766.29 c -7.34,7.34 -10.942,7.34 -10.942,-3.6 z m 62.66,66.25 -55.16,-25.78 -7.5,84.69 z m 40.461,128.91 c 25.789,10.94 25.789,22.03 55.16,-62.66 29.529,-84.53 25.779,-73.59 0,-84.53 v -7.5 l 77.339,25.78 -3.75,7.35 c -25.78,-3.6 -22.03,-22.03 -51.56,66.25 36.88,11.09 51.56,7.34 62.66,-29.38 10.94,-33.12 66.25,-55.15 58.9,18.44 0,3.59 -7.34,10.94 -7.34,0 7.34,-25.78 -7.5,-36.87 -29.53,-7.34 -14.69,33.12 -18.44,25.62 -51.56,33.12 36.87,18.28 47.97,36.72 40.47,55.16 -10.94,29.37 -36.72,36.72 -69.85,22.03 l -84.689,-29.38 z m 77.189,-47.97 c -33.119,77.35 -33.119,66.25 7.5,77.35 18.28,3.75 33.13,0 40.47,-14.69 14.69,-29.53 -3.75,-47.81 -33.12,-58.91 z m 121.56,47.97 7.35,3.59 c 7.34,58.91 33.12,73.6 44.06,62.66 3.75,0 7.5,-22.19 14.84,-70 10.94,-47.81 14.69,-73.59 10.94,-77.34 0,-3.6 -7.34,-3.6 -22.03,-7.35 v -7.34 l 77.34,11.09 v 7.35 c -29.53,-3.75 -25.78,-14.69 -44.21,77.34 -7.35,47.81 -11.1,69.84 -11.1,73.59 3.75,3.6 36.88,25.79 62.66,-47.96 h 10.94 l -14.69,66.25 -139.85,-25.63 z m 180.32,88.28 c 29.37,3.6 29.37,3.6 29.37,-11.09 7.35,-88.28 7.35,-136.1 3.75,-139.85 -3.75,-3.59 -11.09,-3.59 -25.78,-7.34 v -7.34 l 80.94,7.34 v 7.34 c -14.69,0 -25.78,0 -29.38,3.75 -3.75,3.6 -3.75,47.82 -7.5,136.1 0,14.69 0,14.69 29.53,18.44 v 7.34 l -80.93,-7.34 z m 198.75,0 c -18.44,11.1 -29.53,18.44 -44.22,18.44 -29.53,0 -51.56,-22.19 -51.56,-55.31 0,-10.94 3.75,-22.03 14.68,-33.13 7.35,-3.59 18.44,-10.94 36.88,-14.69 47.81,-10.93 55.15,-14.68 55.15,-36.71 0,-18.44 -14.68,-33.13 -40.46,-33.13 -29.38,0 -55.16,18.28 -58.91,58.91 h -10.94 v -66.25 h 10.94 l 14.69,14.68 c 11.09,-11.09 25.78,-18.43 44.22,-18.43 33.12,0 58.9,25.78 58.9,55.15 0,29.53 -14.69,40.47 -66.25,51.57 -40.47,14.68 -44.22,14.68 -44.22,36.87 0,14.69 18.44,29.38 36.88,29.38 25.78,0 40.47,-14.69 55.15,-55.16 h 7.35 l -3.6,62.5 h -7.34 z m 150.78,-7.34 c 33.12,-11.1 29.53,3.59 14.69,-88.28 -10.94,-88.44 -14.69,-73.75 -44.07,-70 v -7.35 l 80.94,-14.68 v 7.34 c -29.53,3.59 -33.12,-7.34 -18.44,80.94 14.69,92.03 7.35,88.28 47.82,77.34 v 7.34 l -80.94,14.69 z m 103.12,-22.19 c 10.94,-3.59 18.28,-3.59 22.03,-7.34 3.6,-3.6 -7.34,-44.07 -33.12,-125 -3.75,-14.85 -18.44,-22.19 -33.13,-18.44 l -3.75,-7.34 70,-18.44 v 3.75 c -18.43,10.94 -22.03,22.03 -18.43,36.72 l 29.53,99.37 62.5,-161.87 11.09,-3.75 c 25.63,99.37 40.47,147.18 47.81,150.93 7.35,3.6 14.69,3.6 22.04,0 l 3.75,7.35 -62.66,18.44 v -7.5 c 7.34,-3.6 11.09,-7.35 14.69,-14.69 3.75,-3.6 -3.6,-44.06 -25.63,-117.66 l -66.25,161.88 -40.47,11.09 z m 187.66,-58.75 c 29.37,-11.09 40.47,0 0,-88.44 -33.13,-84.53 -29.53,-69.84 -55.31,-58.75 l -3.6,-7.5 73.6,-29.37 3.75,7.34 c -29.53,11.1 -40.63,-3.59 0,80.94 32.97,-14.69 32.97,-25.78 29.37,-51.41 h 3.6 l 29.53,69.85 -7.35,3.75 c -11.09,-18.44 -22.18,-29.53 -51.56,-14.85 l 22.03,58.91 c 22.19,11.09 84.69,-14.69 66.25,-69.84 l 3.75,-3.75 18.44,55.15 -128.91,55.31 z m 246.56,-106.72 c -29.53,22.03 -88.28,0 -110.47,-36.87 -25.78,-51.57 -10.93,-99.38 25.78,-121.41 36.88,-22.03 88.29,-7.34 114.07,40.47 25.78,44.22 14.68,95.62 -29.38,117.81 z m 0,-11.09 c 22.03,-14.69 33.13,-36.88 3.6,-95.63 -33.13,-55.31 -62.5,-58.9 -84.54,-44.22 -25.78,14.69 -33.12,44.22 -3.75,99.38 29.38,44.22 58.91,55.16 84.69,40.47 z m 99.38,-66.25 c 14.68,-11.1 18.28,-22.03 10.93,-33.13 -51.4,-69.84 -80.93,-102.97 -84.53,-106.72 -3.75,0 -11.09,3.75 -22.18,14.69 l -3.6,-7.34 62.5,-47.81 3.75,3.75 c -18.44,18.28 -33.12,7.34 25.78,77.18 36.72,-22.03 33.13,-33.12 14.69,-58.9 -18.44,-29.38 -18.44,-47.82 -7.34,-58.91 18.28,-10.94 33.12,-3.59 51.4,14.84 3.75,3.6 7.35,14.69 -3.59,3.6 -29.53,-22.03 -36.88,-7.35 -22.03,14.69 18.28,33.12 14.69,40.46 -3.75,70 40.47,-44.22 125.15,-3.75 51.56,66.25 l -70,51.56 z m 0,-92.03 c 44.06,62.65 36.72,62.65 66.25,36.87 18.28,-11.09 22.03,-22.19 18.28,-33.12 -7.35,-25.78 -33.13,-47.82 -84.53,-3.75 z m 169.22,-51.57 c 11.09,-10.93 14.68,-18.28 11.09,-22.03 0,-3.59 -33.13,-29.37 -95.78,-84.68 -14.69,-10.94 -22.03,-10.94 -36.72,0 l -7.34,-3.6 44.06,-47.81 7.34,3.59 c -10.94,14.85 -14.69,25.78 -10.94,29.53 3.6,3.6 40.47,36.72 110.32,95.63 l -84.53,-154.53 3.59,-3.75 165.62,58.9 c -73.59,-62.5 -114.06,-95.62 -121.4,-95.62 -3.75,0 -11.1,7.34 -18.44,18.44 l -7.34,-3.75 51.56,-62.5 7.34,3.59 c -18.43,25.78 -33.12,14.69 40.47,73.59 77.19,62.66 62.5,47.82 73.6,33.13 l 7.34,3.75 -33.13,40.47 -136.09,-51.56 69.84,132.5 -33.12,40.46 z m 217.18,-268.59 c -110.47,-18.44 -169.37,-25.78 -176.72,-25.78 -3.59,3.75 -11.09,7.34 -14.68,14.84 l -7.35,-3.75 33.13,-55.15 7.34,3.59 c -11.09,25.78 -25.78,29.53 33.13,36.88 l 36.72,-58.91 c -29.38,-44.22 -29.38,-44.22 -44.07,-18.44 l -7.34,-3.59 36.72,-58.91 3.75,3.6 c -3.75,11.09 -3.75,18.43 0,22.18 l 102.97,136.1 c 3.75,7.34 3.75,7.34 -3.6,7.34 z m -81.09,-80.94 -32.97,55.16 80.94,14.84 z m 70,-33.12 3.75,-7.35 c 18.28,3.75 32.97,3.75 44.06,0 29.53,-11.09 29.53,-25.78 25.78,-29.37 0,-3.75 -44.22,-22.19 -136.09,-58.91 -3.75,0 -3.75,-3.75 -14.84,22.03 l -7.35,-3.75 29.53,-69.84 7.35,3.75 c -3.75,18.28 -25.78,22.03 62.5,55.16 44.22,18.43 66.25,25.78 70,22.03 3.59,0 36.72,-25.78 -33.13,-66.25 l 3.6,-7.35 62.65,25.79 -55.31,128.75 z m 184.06,-390 c 10.94,18.28 10.94,33.12 10.94,47.81 -7.34,40.47 -47.81,73.59 -106.72,66.25 -44.06,-7.34 -80.94,-47.81 -73.59,-88.44 3.75,-40.47 29.53,-58.75 70,-58.75 7.34,0 7.34,7.35 0,7.35 -33.13,3.59 -58.91,18.28 -62.66,51.4 -3.59,29.53 22.19,55.32 70,58.91 62.5,11.09 88.28,-10.94 92.03,-40.47 0,-10.94 -3.75,-22.03 -11.09,-33.12 -11.1,-10.94 -22.03,-18.44 -40.47,-29.38 v -3.75 l 69.84,11.09 -3.59,7.35 z m -55.31,231.72 c 3.75,-29.38 7.34,-29.38 -7.34,-33.13 l -128.75,-36.72 c -3.75,0 -7.35,-3.75 -18.44,25.78 h -7.35 l 22.04,-80.93 7.34,3.59 c -3.59,29.53 -18.28,29.53 70,55.16 92.03,25.78 73.59,14.84 84.69,-10.94 h 7.34 l -22.19,80.94 z m 77.34,-327.5 c 0,-33.13 -3.75,-29.38 -7.34,-29.38 -3.75,0 -25.78,10.94 -73.59,29.38 -92.04,40.47 -84.69,36.87 -84.69,51.56 h -7.35 l 3.6,-47.81 h 7.5 c 0,29.37 0,22.03 69.84,-7.35 v -47.97 c -73.59,-3.59 -66.25,-7.34 -66.25,22.19 h -7.34 l 11.09,-139.84 66.25,3.59 -3.75,7.35 c -47.81,7.5 -55.15,11.09 -62.5,51.56 0,29.53 -11.09,33.12 77.19,33.12 0,-40.47 -7.34,-44.06 -33.13,-44.06 v -3.75 l 80.94,3.75 v 3.59 c -25.62,3.75 -36.72,14.69 -40.47,40.47 l 62.66,3.75 c 3.59,0 10.94,7.35 10.94,-40.47 3.75,-22.18 -14.69,-36.87 -47.82,-40.46 l 3.75,-7.5 55.16,7.5 -7.34,150.78 z m -80.93,-51.57 v 44.22 l 77.18,-33.12 c 0,-7.35 -7.34,-7.35 -14.68,-7.35 z M 169.34,1268.47 c 3.59,-33.12 14.68,-29.37 -62.66,-47.81 -36.7191,-7.34 -58.9105,-14.69 -66.2503,-22.03 -14.6914,-14.69 -18.2813,-36.88 -14.6914,-66.25 3.75,-18.44 14.6914,-33.13 29.3828,-44.22 11.0898,-7.34 36.8672,-3.59 77.3399,7.34 40.469,11.1 66.25,14.85 70,11.1 3.59,-3.6 7.34,-14.69 10.937,-25.78 l 11.09,3.75 -18.437,69.84 -7.34,-3.59 c 0,-14.69 0,-22.19 -11.09,-25.78 -3.601,-3.75 -110.3202,-36.88 -128.7499,-25.79 -25.7813,25.79 -25.7813,66.25 -3.75,80.94 3.75,3.75 25.7773,7.35 62.6489,18.44 36.718,11.09 55.16,18.44 58.91,14.69 3.59,-3.6 7.34,-10.94 10.941,-25.78 h 11.09 l -22.031,84.68 z m 51.398,-191.25 c 3.75,-7.34 3.75,-14.68 0,-22.18 0,-3.6 -40.468,-22.04 -117.648,-47.82 -14.8517,-3.59 -29.5392,3.75 -33.1291,18.44 l -7.3398,-3.75 25.6172,-66.09 7.5,3.59 c -3.75,11.09 -7.5,18.442 -3.75,22.031 3.75,7.348 44.2227,25.779 117.8127,51.559 L 114.02,882.07 c -3.59,-7.351 0,-7.351 3.75,-7.351 92.031,33.133 143.441,47.972 150.941,44.222 7.34,-3.75 10.937,-7.339 14.687,-11.089 h 7.34 l -22.027,58.898 -7.5,-3.59 c 3.75,-3.75 3.75,-11.09 0,-18.441 -3.59,-7.34 -40.473,-22.028 -114.063,-47.809 l 92.032,147.19 -11.09,36.72 z m 62.66,-169.368 c 14.692,-25.782 22.032,-29.383 -51.558,-62.5 -70,-33.133 -73.602,-36.883 -88.289,-11.102 l -7.34,-3.59 36.719,-70 7.34,3.75 c -14.68,25.781 -10.93,29.379 51.57,62.5 69.84,33.129 73.59,36.879 88.281,11.09 l 7.34,3.602 -40.473,73.589 z m 40.473,-77.192 c 3.59,-7.34 7.34,-14.691 3.59,-18.441 0,-3.75 -33.121,-55.149 -99.371,-147.18 0,0 -3.602,-7.348 3.75,-3.75 110.461,25.781 169.211,36.871 172.961,33.121 7.347,-3.59 11.097,-7.34 14.687,-10.941 l 3.75,3.601 -33.117,55.309 -7.351,-3.75 c 14.691,-25.777 18.281,-29.379 7.351,-33.129 -3.75,-3.75 -47.82,-11.09 -125.16,-25.781 47.809,70 73.59,103.133 77.34,103.133 3.597,3.589 3.597,3.589 7.347,3.589 3.59,0 7.34,-7.339 14.692,-18.441 l 7.34,3.75 -40.469,62.5 z M 426.84,676.129 c 14.68,-14.84 11.09,-25.777 -47.82,-73.59 C 323.871,558.32 320.121,554.57 305.43,573 l -7.34,-3.59 92.031,-110.469 51.399,36.879 -3.59,7.34 c -62.5,-44.219 -99.379,29.379 -99.379,29.379 0,3.75 18.437,18.43 58.91,51.563 18.437,-29.532 14.687,-40.473 -3.75,-55.313 l 3.75,-7.348 62.5,55.309 -3.59,3.602 C 437.93,565.66 426.84,561.91 401.051,587.691 l 47.969,40.469 c 25.628,3.75 77.191,-58.75 22.031,-88.281 l 3.597,-3.59 L 522.621,573 430.59,679.719 Z M 533.551,550.969 C 563.09,521.441 548.238,521.441 500.43,462.691 452.621,407.379 449.02,414.719 430.59,433.16 l -7.352,-3.59 62.5,-55.32 3.75,3.75 c -25.777,25.789 -22.187,22.039 33.133,77.191 l 10.93,-10.941 c 14.687,-14.68 14.687,-25.781 0,-47.809 -29.371,-44.222 -22.031,-51.562 -14.68,-58.902 14.68,-14.687 33.117,-11.098 51.559,10.93 3.59,3.75 3.59,7.5 -3.75,3.75 -77.192,-40.469 33.121,55.16 -18.442,80.941 36.883,-25.781 55.313,-22.031 70,-7.34 18.442,18.43 14.692,44.219 -11.09,70 l -66.25,62.5 z m -7.34,-92.028 c 55.16,62.5 44.219,62.5 70,36.879 33.129,-33.129 14.687,-51.57 -3.75,-62.66 -14.691,-3.59 -25.781,-7.34 -66.25,25.781 z M 754.34,370.66 c -14.692,18.442 -14.692,29.379 -29.379,40.469 -25.781,14.691 -55.16,10.941 -73.59,-14.688 -7.351,-11.089 -7.351,-25.781 -3.75,-36.871 3.75,-11.101 11.09,-22.031 22.18,-33.129 29.379,-36.722 36.719,-44.062 22.039,-62.5 -11.102,-14.691 -25.789,-18.441 -51.57,-3.75 -25.782,14.688 -33.122,47.809 -14.68,80.938 l -7.352,7.34 -36.867,-55.149 7.5,-7.351 22.027,3.75 c 0,-14.84 7.34,-29.528 25.782,-40.469 84.531,-29.531 121.41,44.07 51.41,95.629 -25.629,33.121 -29.379,36.723 -14.692,55.16 11.09,11.09 29.532,14.68 47.813,3.75 18.437,-14.687 25.777,-36.879 14.84,-77.348 l 3.597,-3.589 33.122,51.398 -7.34,3.75 z m 36.871,-18.441 c 11.09,-3.75 18.437,-11.09 18.437,-22.028 0,-7.339 -22.187,-47.812 -62.66,-117.812 -3.59,-7.34 -14.687,-7.34 -33.117,3.75 l -3.601,-7.5 73.601,-36.719 3.59,7.34 C 769.18,183 761.68,190.352 765.43,201.289 l 62.5,117.813 c 3.75,11.089 7.5,11.089 33.121,-3.75 l 3.75,7.5 -70,36.718 z m 62.5,-102.969 7.34,-3.75 c 33.129,55.16 66.25,44.219 66.25,29.379 3.75,-3.59 -3.59,-25.629 -22.031,-66.25 -14.68,-40.469 -25.782,-66.09 -29.372,-69.84 -3.75,-3.75 -14.847,0 -25.777,7.34 l -3.75,-7.34 70,-29.379 3.59,7.34 c -29.371,10.941 -25.781,10.941 3.75,88.289 18.437,40.461 25.777,58.902 29.379,62.5 11.09,3.75 47.81,7.34 29.531,-69.848 l 10.93,-3.75 18.439,62.661 L 883.238,308 Z M 1092.93,234.41 C 1023.09,146.129 986.211,101.91 982.621,98.3203 c -3.75,-3.75 -11.101,-3.75 -18.441,0 l -3.75,-7.3515 66.25,-18.4297 v 7.3398 c -36.719,7.3399 -29.379,14.6914 -3.59,51.5621 l 66.25,-22.031 c 10.93,-47.9686 0,-47.9686 -18.44,-44.2186 l -3.75,-7.3398 66.25,-18.4414 3.75,7.3398 c -11.1,3.75 -18.44,7.3516 -18.44,18.4414 L 1104.02,234.41 c -3.75,7.34 -7.34,3.75 -11.09,0 z m -3.59,-114.058 -58.91,18.437 47.81,66.25 z m 202.34,55.148 c -18.44,22.191 -77.34,55.32 -99.38,-22.031 -3.59,-10.93 0,-22.028 7.35,-33.117 7.34,-7.352 18.44,-14.692 36.87,-22.0317 44.07,-18.4414 47.82,-18.4414 47.82,-44.2187 0,-18.2813 -18.44,-29.3828 -44.22,-25.7813 -29.38,3.75 -51.41,25.7813 -51.41,66.25 h -11.09 l -7.35,-62.5 10.94,-3.75 14.84,14.8399 c 10.94,-14.8399 25.63,-22.1914 44.07,-25.7813 58.9,-11.08984 70,51.4102 58.9,69.8399 -3.59,14.6912 -18.43,22.1912 -51.56,36.8832 -40.47,22.027 -40.47,18.437 -40.47,44.058 3.75,14.84 22.19,25.781 40.47,22.192 25.78,-3.75 36.88,-18.442 47.97,-62.661 h 7.34 l 3.6,62.661 h -7.35 z m 128.75,0 c 29.53,0 25.78,0 25.78,-10.93 l 7.34,-121.4098 c 0,-18.4414 -3.59,-25.7813 -22.03,-25.7813 v -7.3398 l 66.25,3.5898 v 7.3399 c -25.78,0 -33.12,11.1015 -33.12,29.5312 l -7.35,128.75 73.6,-161.8711 h 7.34 l 44.22,169.2231 10.94,-147.1918 c 0,-3.5899 -3.6,-11.0899 -14.69,-11.0899 h -14.69 l 3.6,-7.3515 81.09,3.75 -3.75,7.3515 h -14.69 c -11.09,0 -14.68,0 -14.68,11.0899 l -7.5,132.3398 c 0,11.102 -3.6,14.852 25.78,14.852 v 7.339 l -58.91,-3.75 L 1538.24,50.5 1471.99,186.602 1416.84,183 Z m 294.37,44.219 C 1692.77,105.66 1681.68,46.75 1678.09,43.1602 c 0,-3.75 -3.75,-3.75 -14.69,-7.3399 v -7.5 l 62.5,11.0899 V 46.75 c -25.78,-3.5898 -40.47,-7.3398 -25.78,44.2188 l 66.25,10.9412 c 36.87,-51.41 25.78,-44.0584 3.75,-47.8084 V 46.75 l 69.84,14.6914 -3.59,7.3477 c -11.1,-3.5977 -18.44,0 -22.19,7.5 L 1725.9,219.719 c -7.35,7.351 -7.35,3.75 -11.1,0 z M 1762.77,113 1700.12,101.91 1714.8,183 Z m 150.78,147.191 c -14.68,3.75 -106.71,7.348 -73.59,-69.839 11.09,-25.782 29.53,-29.532 62.66,-25.782 51.4,10.93 55.15,7.34 62.5,-18.441 11.09,-14.688 3.75,-29.379 -22.03,-40.469 -29.54,-11.0897 -62.66,0 -77.35,33.129 l -11.09,-3.75 22.19,-62.4999 7.34,3.75 14.69,22.0312 c 11.09,-11.1015 29.37,-11.1015 47.81,-3.75 58.91,18.4297 40.47,84.6797 18.44,92.0317 -11.1,11.089 -22.03,11.089 -62.5,7.339 -47.97,-7.339 -66.25,7.348 -55.32,36.879 18.44,40.469 47.82,29.371 95.79,-11.101 l 7.34,3.75 -25.78,55.16 -7.35,-3.75 z m 88.29,55.161 c 11.09,-110.313 14.84,-169.223 11.09,-172.813 -3.59,-3.75 -7.34,-11.098 -14.69,-14.848 l 3.6,-3.589 58.9,29.367 -3.59,7.351 c -18.44,-14.691 -33.13,-10.941 -33.13,33.121 l 58.91,29.528 c 55.16,-36.867 40.47,-33.117 14.69,-44.219 l 3.59,-7.34 62.66,29.379 -3.75,7.34 -7.35,-3.59 c -3.59,-3.75 -11.09,0 -18.43,3.59 l -125,114.223 c -3.75,3.589 -7.5,3.589 -7.5,-7.5 z m 73.75,-84.532 -55.32,-25.781 -7.34,80.93 z m 10.93,117.649 c 25.78,14.851 29.53,11.101 33.13,7.5 47.81,-70 73.59,-110.469 73.59,-117.809 3.75,-3.75 -3.59,-11.09 -14.69,-18.441 l 3.75,-7.34 66.1,44.223 -3.6,7.339 c -25.78,-18.441 -25.78,-11.089 -29.37,-7.339 l -36.88,55.148 c 36.88,22.039 36.88,22.039 62.5,-3.75 33.13,-40.461 36.88,-33.121 51.57,-25.621 18.43,10.941 18.43,25.621 3.75,51.41 -3.75,3.75 -3.75,0 -3.75,-3.598 11.09,-73.589 -44.22,36.719 -88.28,3.598 25.78,25.781 44.06,47.813 22.03,70 -10.94,18.281 -36.72,18.281 -69.85,0 l -73.59,-47.82 z m 88.28,-29.367 c -44.06,62.5 -44.06,55.148 -18.28,70 62.5,36.718 91.88,-22.192 18.28,-70 z m 70,132.5 c 11.1,7.339 14.69,11.089 18.44,11.089 3.6,3.598 40.47,-7.5 102.97,-29.531 l 33.13,-40.469 c 3.75,-3.589 3.75,-7.339 -14.69,-25.781 l 3.59,-7.34 62.66,55.149 -7.35,7.351 c -18.43,-18.281 -22.18,-40.468 -66.25,29.532 -29.53,114.058 -22.18,99.367 -7.34,114.058 l -7.34,3.75 -44.22,-40.621 3.75,-7.348 7.34,7.348 c 3.6,3.75 14.69,3.75 18.28,0 3.75,-3.598 7.35,-29.379 18.44,-77.187 -106.72,25.777 -84.69,33.117 -69.84,47.808 l -3.75,7.34 -55.16,-47.809 z m 139.85,128.75 c 14.69,18.437 18.44,14.687 22.03,11.089 66.25,-55.152 99.37,-88.281 103.12,-92.031 3.6,-3.59 3.6,-11.09 -7.34,-22.031 l 7.34,-3.75 51.41,58.91 -7.34,7.34 c -18.28,-29.379 -18.28,-22.027 -58.91,11.09 l -3.59,36.722 c 106.72,0 95.62,-14.691 77.34,-33.121 l 7.34,-3.601 47.82,58.91 -7.35,3.59 c -3.75,-3.59 -7.34,-7.34 -14.84,-10.93 -3.59,0 -44.06,3.59 -114.06,10.93 -10.94,73.601 -7.35,80.941 3.75,95.781 l -7.35,3.602 -44.22,-51.563 7.35,-7.348 c 11.09,14.688 18.44,18.438 22.19,3.75 3.59,-3.75 10.93,-36.871 14.68,-99.371 -84.68,69.84 -70,62.5 -51.56,80.93 l -3.59,7.352 -51.57,-62.5 z m 114.06,143.589 c 14.69,25.778 14.69,25.778 29.38,14.688 73.59,-44.219 110.46,-70 114.21,-73.59 3.6,-3.75 0,-14.687 -11.09,-25.789 l 7.34,-3.75 44.22,66.25 -7.34,3.75 c -14.84,-25.781 -3.75,-36.871 -136.25,51.57 -14.69,10.93 -14.69,7.34 3.75,33.121 l -7.34,3.598 -44.22,-66.25 z m 70,147.188 c 77.19,-77.34 114.06,-117.809 117.66,-128.75 3.75,-7.5 3.75,-14.84 0,-22.188 h 7.34 l 29.53,58.911 -7.34,3.75 c -14.85,-33.133 -18.44,-29.532 -51.56,7.339 l 29.37,58.911 c 47.81,0 51.56,-7.5 40.47,-25.782 l 7.34,-3.75 29.53,62.5 -7.34,3.75 c -3.75,-7.351 -7.34,-11.101 -18.44,-14.691 L 2572.3,882.07 c -3.59,0 -11.09,0 -3.59,-10.941 z m 114.06,-22.027 -25.78,-55.313 -58.9,58.902 z m -66.25,91.867 c 10.94,25.781 0,36.883 132.5,-18.278 14.69,-3.75 22.03,-22.191 18.28,-33.121 l 7.35,-3.75 22.19,66.25 -7.35,3.75 c -3.75,-18.441 3.6,-33.129 -132.5,14.68 l 165.63,55.16 3.59,7.34 c -92.03,33.13 -139.84,51.57 -143.44,55.16 -3.75,3.75 -7.34,11.09 -3.75,25.78 l -7.34,3.75 -18.44,-58.9 7.35,-3.75 c 3.75,18.43 0,36.87 128.9,-18.29 l -165.62,-55.309 -14.69,-36.722 z m 195,143.601 c 14.69,-11.1 18.44,-18.44 14.69,-33.13 h 7.34 l 14.69,62.5 -7.34,3.75 c -7.35,-33.12 -7.35,-36.87 -47.81,-7.34 l 14.68,66.25 c 66.25,18.28 47.97,0 44.22,-18.44 h 7.35 l 14.68,66.25 -7.34,3.59 c -3.59,-10.93 -7.34,-14.68 -14.69,-18.28 l -169.22,-25.78 c -3.75,0 -11.09,0 -3.75,-7.34 z m -14.68,92.03 -14.69,-62.66 -70,47.81 z"
       style="fill:#000000;fill-opacity:1;fill-rule:nonzero;stroke:none"
       transform="matrix(0.13333333,0,0,-0.13333333,0,388)"
       clip-path="url(#clipPath2)" />
  </g>
</svg>
